<svg xmlns="http://www.w3.org/2000/svg" width="33.68" height="23.809" viewBox="0 0 33.68 23.809">
  <path id="Path_19480" data-name="Path 19480" d="M32.7,80.842a1.3,1.3,0,0,0-1.407-.179L24.2,84.113l-6.649-7.666a1.295,1.295,0,0,0-1.957,0L8.948,84.113l-7.086-3.45A1.295,1.295,0,0,0,.056,82.2L4.977,98.391a1.3,1.3,0,0,0,1.239.918H26.935a1.3,1.3,0,0,0,1.239-.918L33.095,82.2A1.3,1.3,0,0,0,32.7,80.842ZM25.975,96.719H7.175L3.4,84.291l5.311,2.585a1.3,1.3,0,0,0,1.545-.316l6.322-7.289L22.9,86.561a1.3,1.3,0,0,0,1.545.316l5.311-2.585Z" transform="translate(0.265 -75.75)" fill="#adadad" stroke="#fff" stroke-width="0.5"/>
</svg>
