<svg xmlns="http://www.w3.org/2000/svg" width="22.498" height="38.396" viewBox="0 0 22.498 38.396">
  <g id="tick" transform="translate(0)">
    <g id="Group_926" data-name="Group 926">
      <path id="Path_3417" data-name="Path 3417" d="M128.11,29.174a2.448,2.448,0,0,0-1.5-2.255,2.444,2.444,0,0,0-2.165-3.579h-3.251V19.188A9.75,9.75,0,1,0,114.878.8a.75.75,0,1,0,.6,1.376,8.244,8.244,0,1,1-4.3,4.3.75.75,0,1,0-1.376-.6,9.754,9.754,0,0,0,6.5,13.31v3.389h-.124a7.891,7.891,0,0,0-5.776,2.514H106.75a.75.75,0,0,0-.75.75l.005,9.292a.75.75,0,0,0,.75.749h3.653A7.9,7.9,0,0,0,116.18,38.4h7.687a2.444,2.444,0,0,0,2.153-3.6,2.443,2.443,0,0,0,1.025-3.6,2.444,2.444,0,0,0,1.065-2.017ZM118.749,19.5c.319,0,.634-.016.945-.046V23.34H117.8V19.452q.466.045.945.046Zm6.916,10.62h-.643a.75.75,0,1,0,0,1.5.945.945,0,0,1,0,1.889h-1.155a.75.75,0,0,0,0,1.5.945.945,0,1,1,0,1.889H116.18a6.407,6.407,0,0,1-4.867-2.252.75.75,0,0,0-.57-.262H107.5l0-7.792h3.239a.75.75,0,0,0,.57-.263,6.4,6.4,0,0,1,4.87-2.251h.124v.013a.75.75,0,0,0,.75.75h7.39a.945.945,0,1,1,0,1.889.75.75,0,1,0,0,1.5h1.221a.945.945,0,0,1,0,1.889Z" transform="translate(-106)" fill="#adadad"/>
      <path id="Path_3418" data-name="Path 3418" d="M211.247,83.111a2.252,2.252,0,0,0,3.181,0l3.661-3.661a2.25,2.25,0,0,0-3.181-3.181l-2.07,2.07-.352-.352a2.25,2.25,0,0,0-3.181,3.181Zm-.882-4.063a.751.751,0,0,1,1.06,0l.882.882a.75.75,0,0,0,1.061,0l2.6-2.6a.75.75,0,1,1,1.06,1.06l-3.661,3.661a.751.751,0,0,1-1.06,0l-1.942-1.942a.749.749,0,0,1,0-1.06Z" transform="translate(-200.948 -69.941)" fill="#adadad"/>
      <path id="Path_3419" data-name="Path 3419" d="M181.9,36.642a.75.75,0,1,0-.53-1.28h0a.75.75,0,0,0,.53,1.28Z" transform="translate(-175.512 -32.507)" fill="#adadad"/>
    </g>
  </g>
</svg>
