<svg xmlns="http://www.w3.org/2000/svg" width="30.827" height="30.827" viewBox="0 0 30.827 30.827">
  <g id="speedometer-svgrepo-com" transform="translate(-6.201 -6.201)">
    <circle id="Ellipse_1590" data-name="Ellipse 1590" cx="15.414" cy="15.414" r="15.414" transform="translate(6.201 6.201)" fill="#f2cf1f"/>
    <path id="Path_37862" data-name="Path 37862" d="M143.916,139.74a13.31,13.31,0,0,1,7.046,2.08c-1.209,1.237-2.886,2.97-4.095,4.254-5.247-2.464-12.518-.759-14.5,5.079.178-7.121,4.779-11.413,11.544-11.413Z" transform="translate(-121.899 -128.611)" fill="#ffe76f"/>
    <path id="Path_37863" data-name="Path 37863" d="M228.25,175.709a3.569,3.569,0,1,1-2.98-2.09l8.067-8.32Zm-3.1.075a1.363,1.363,0,1,1-1.359,1.368A1.374,1.374,0,0,1,225.149,175.784Z" transform="translate(-202.935 -151.865)" fill="#fff"/>
  </g>
</svg>
