<svg xmlns="http://www.w3.org/2000/svg" width="198.448" height="40.683" viewBox="0 0 198.448 40.683">
  <g id="Group_49305" data-name="Group 49305" transform="translate(-1732.226 -327.604)">
    <g id="Group_49299" data-name="Group 49299" transform="translate(1732.226 332.448)">
      <g id="Group_49298" data-name="Group 49298" transform="translate(0 0)">
        <path id="Path_38059" data-name="Path 38059" d="M52.641,82h-7.8l4.872-29.942h7.8ZM38.288,52.054,30.856,72.648l-.879-4.435v0L27.354,54.75s-.317-2.7-3.7-2.7H11.37l-.144.507a29.162,29.162,0,0,1,8.154,3.422L26.153,82h8.122l12.4-29.943h-8.39ZM99.6,82h7.158l-6.241-29.943H94.253a3.582,3.582,0,0,0-3.6,2.231L79.028,82h8.126l1.625-4.448h9.91L99.6,82ZM91.024,71.4l4.1-11.2,2.3,11.2ZM79.638,59.254l1.112-6.43a22.5,22.5,0,0,0-7.011-1.306c-3.868,0-13.055,1.691-13.055,9.912,0,7.735,10.782,7.831,10.782,11.895S61.795,76.661,58.6,74.1l-1.159,6.723a21.846,21.846,0,0,0,8.8,1.691c5.32,0,13.345-2.754,13.345-10.251,0-7.785-10.879-8.51-10.879-11.895s7.593-2.951,10.929-1.112Z" transform="translate(-11.226 -51.519)" fill="#508ed4"/>
      </g>
      <path id="Path_38060" data-name="Path 38060" d="M29.977,68.347,27.354,54.882s-.317-2.7-3.7-2.7H11.37l-.144.507A30.2,30.2,0,0,1,22.8,58.5,23.348,23.348,0,0,1,29.977,68.347Z" transform="translate(-11.226 -51.652)" fill="#e6a540"/>
    </g>
    <g id="Group_49301" data-name="Group 49301" transform="translate(1862.869 327.604)">
      <path id="Path_38061" data-name="Path 38061" d="M66.383,33.442A20.342,20.342,0,1,1,45.934,13.1,20.325,20.325,0,0,1,66.383,33.442Z" transform="translate(1.422 -13.1)" fill="#ffb600"/>
      <path id="Path_38062" data-name="Path 38062" d="M46.042,13.1A20.342,20.342,0,1,1,25.7,33.442" transform="translate(1.422 -13.1)" fill="#f7981d"/>
      <path id="Path_38063" data-name="Path 38063" d="M44.6,13.1a20.342,20.342,0,1,1,0,40.683" transform="translate(2.864 -13.1)" fill="#ff8500"/>
      <path id="Path_38064" data-name="Path 38064" d="M20.626,13.1a20.342,20.342,0,0,0,.215,40.683A20.578,20.578,0,0,0,34.51,48.509a19.339,19.339,0,0,0,2.045-2.153h-4.2a24.828,24.828,0,0,1-1.507-2.045h7.211a13.787,13.787,0,0,0,1.184-2.153H29.667a12.828,12.828,0,0,1-.861-2.153H40a21.371,21.371,0,0,0,1.076-6.458,27.781,27.781,0,0,0-.431-4.305H28.16a15.735,15.735,0,0,1,.538-2.153H39.892a12.828,12.828,0,0,0-.861-2.153H29.559a21.345,21.345,0,0,1,1.184-2.153h7.211a10.235,10.235,0,0,0-1.614-2.153H32.358A18.344,18.344,0,0,1,34.4,18.589a19.86,19.86,0,0,0-13.669-5.274c0-.215,0-.215-.108-.215Z" transform="translate(-0.5 -13.1)" fill="#ff5050"/>
      <path id="Path_38065" data-name="Path 38065" d="M.5,33.426A20.325,20.325,0,0,0,20.842,53.768,20.578,20.578,0,0,0,34.51,48.494a19.34,19.34,0,0,0,2.045-2.153h-4.2A24.828,24.828,0,0,1,30.851,44.3h7.211a13.787,13.787,0,0,0,1.184-2.153H29.667a12.827,12.827,0,0,1-.861-2.153H40a21.371,21.371,0,0,0,1.076-6.458,27.781,27.781,0,0,0-.431-4.305H28.16a15.735,15.735,0,0,1,.538-2.153H39.892a12.828,12.828,0,0,0-.861-2.153H29.559a21.345,21.345,0,0,1,1.184-2.153h7.211a10.235,10.235,0,0,0-1.614-2.153H32.358A18.344,18.344,0,0,1,34.4,18.574,19.86,19.86,0,0,0,20.734,13.3h-.108" transform="translate(-0.5 -13.085)" fill="#e52836"/>
      <path id="Path_38066" data-name="Path 38066" d="M19.415,53.768a20.578,20.578,0,0,0,13.669-5.274,19.34,19.34,0,0,0,2.045-2.153h-4.2A24.828,24.828,0,0,1,29.425,44.3h7.211a13.787,13.787,0,0,0,1.184-2.153H28.241a12.827,12.827,0,0,1-.861-2.153H38.573a21.371,21.371,0,0,0,1.076-6.458,27.781,27.781,0,0,0-.431-4.305H26.734a15.735,15.735,0,0,1,.538-2.153H38.465a12.828,12.828,0,0,0-.861-2.153H28.133a21.344,21.344,0,0,1,1.184-2.153h7.211a10.235,10.235,0,0,0-1.614-2.153H30.931a18.344,18.344,0,0,1,2.045-2.045A19.86,19.86,0,0,0,19.308,13.3H19.2" transform="translate(0.926 -13.085)" fill="#cb2026"/>
      <path id="Path_38067" data-name="Path 38067" d="M27.915,37.54l.323-1.83a4.661,4.661,0,0,1-.538.108c-.753,0-.861-.431-.753-.646l.646-3.767h1.184L29.1,29.36H28.023l.215-1.292H26.086s-1.292,7.1-1.292,7.964a1.616,1.616,0,0,0,1.722,1.83,3.3,3.3,0,0,0,1.4-.323Zm.753-3.444c0,3.014,2.045,3.767,3.767,3.767a5.588,5.588,0,0,0,2.26-.323l.431-2.045a6.452,6.452,0,0,1-2.26.538c-2.368,0-1.937-1.722-1.937-1.722h4.413a13.955,13.955,0,0,0,.323-1.937,2.916,2.916,0,0,0-3.121-3.121C30.283,29.037,28.669,31.405,28.669,34.1Zm3.767-3.121c1.184,0,.969,1.4.969,1.507H31.037C31.037,32.374,31.252,30.975,32.436,30.975ZM46.1,37.54l.431-2.368a5.289,5.289,0,0,1-1.83.538c-1.507,0-2.153-1.184-2.153-2.475,0-2.583,1.292-3.982,2.8-3.982a3.594,3.594,0,0,1,1.937.646l.323-2.26a7.567,7.567,0,0,0-2.475-.538c-2.475,0-4.951,2.153-4.951,6.242,0,2.691,1.292,4.52,3.875,4.52A9.659,9.659,0,0,0,46.1,37.54Zm-30.028-8.5a7.623,7.623,0,0,0-2.583.431L13.17,31.3a6.362,6.362,0,0,1,2.368-.431c.753,0,1.4.108,1.4.753,0,.431-.108.538-.108.538h-.969c-1.83,0-3.875.753-3.875,3.229,0,1.937,1.292,2.368,2.045,2.368a3.234,3.234,0,0,0,2.26-.969l-.108.861h1.937l.861-5.92a2.551,2.551,0,0,0-2.906-2.691Zm.431,4.843c0,.323-.215,2.045-1.507,2.045a.84.84,0,0,1-.861-.861c0-.538.323-1.292,1.937-1.292A1.7,1.7,0,0,0,16.507,33.881Zm4.52,3.875c.538,0,3.229.108,3.229-2.8,0-2.691-2.583-2.153-2.583-3.229,0-.538.431-.753,1.184-.753.323,0,1.507.108,1.507.108l.323-1.937a8.175,8.175,0,0,0-2.045-.215c-1.614,0-3.229.646-3.229,2.8,0,2.475,2.691,2.26,2.691,3.229,0,.646-.753.753-1.292.753a7.038,7.038,0,0,1-1.937-.323l-.323,1.937c.108.215.646.431,2.475.431Zm42.943-10.44-.431,2.906A2.984,2.984,0,0,0,61.5,29.145c-1.937,0-3.659,2.368-3.659,5.166,0,1.722.861,3.552,2.691,3.552A2.873,2.873,0,0,0,62.571,37l-.108.753h2.153l1.614-10.332ZM63,33.02c0,1.184-.538,2.691-1.722,2.691-.753,0-1.184-.646-1.184-1.722,0-1.722.753-2.8,1.722-2.8C62.571,31.19,63,31.728,63,33.02ZM4.345,37.647,5.636,29.9l.215,7.749H7.358l2.8-7.749L8.973,37.647h2.26l1.722-10.332H9.4l-2.153,6.35-.108-6.35H4.022L2.3,37.647H4.345Zm33.365,0c.646-3.552.753-6.458,2.26-5.92a8.448,8.448,0,0,1,.753-2.475h-.431c-.969,0-1.722,1.292-1.722,1.292l.215-1.184H36.741l-1.4,8.395h2.368Zm13.346-8.61a7.623,7.623,0,0,0-2.583.431l-.323,1.83a6.362,6.362,0,0,1,2.368-.431c.753,0,1.4.108,1.4.753,0,.431-.108.538-.108.538H50.84c-1.83,0-3.875.753-3.875,3.229,0,1.937,1.292,2.368,2.045,2.368a3.234,3.234,0,0,0,2.26-.969l-.108.861H53.1l.861-5.92c.108-2.583-2.153-2.691-2.906-2.691Zm.538,4.843c0,.323-.215,2.045-1.507,2.045a.84.84,0,0,1-.861-.861c0-.538.323-1.292,1.937-1.292C51.486,33.881,51.486,33.881,51.593,33.881Zm4.2,3.767c.646-3.552.753-6.458,2.26-5.92a8.447,8.447,0,0,1,.753-2.475h-.431c-.969,0-1.722,1.292-1.722,1.292l.215-1.184H54.822l-1.4,8.395h2.368Z" transform="translate(-0.363 -12.032)" fill="#fff"/>
      <g id="Group_49300" data-name="Group 49300" transform="translate(1.937 15.068)">
        <path id="Path_38068" data-name="Path 38068" d="M24.579,36.033a1.616,1.616,0,0,0,1.722,1.83,4.1,4.1,0,0,0,1.614-.323l.323-1.83a4.661,4.661,0,0,1-.538.108c-.753,0-.861-.431-.753-.646l.646-3.767h1.184L29.1,29.36H28.023l.215-1.292M29.745,34.1c0,3.014.969,3.767,2.691,3.767a5.588,5.588,0,0,0,2.26-.323l.431-2.045a6.452,6.452,0,0,1-2.26.538c-2.368,0-1.937-1.722-1.937-1.722h4.413a13.955,13.955,0,0,0,.323-1.937,2.916,2.916,0,0,0-3.121-3.121C30.283,29.037,29.745,31.405,29.745,34.1Zm2.691-3.121c1.184,0,1.4,1.4,1.4,1.507h-2.8C31.037,32.374,31.252,30.975,32.436,30.975ZM46.1,37.54l.431-2.368a5.289,5.289,0,0,1-1.83.538c-1.507,0-2.153-1.184-2.153-2.475,0-2.583,1.292-3.982,2.8-3.982a3.594,3.594,0,0,1,1.937.646l.323-2.26a7.567,7.567,0,0,0-2.475-.538c-2.475,0-3.875,2.153-3.875,6.242,0,2.691.215,4.52,2.8,4.52A9.659,9.659,0,0,0,46.1,37.54ZM13.17,31.405a6.362,6.362,0,0,1,2.368-.431c.753,0,1.4.108,1.4.753,0,.431-.108.538-.108.538h-.969c-1.83,0-3.875.753-3.875,3.229,0,1.937,1.292,2.368,2.045,2.368a3.234,3.234,0,0,0,2.26-.969l-.108.861h1.937l.861-5.92c0-2.475-2.153-2.583-3.014-2.583m1.614,4.628A3.524,3.524,0,0,1,15,35.925a.84.84,0,0,1-.861-.861c0-.538.323-1.292,1.937-1.292A8.793,8.793,0,0,0,17.583,33.881Zm1.076,3.659a9.109,9.109,0,0,0,2.475.215c.538,0,3.229.108,3.229-2.8,0-2.691-2.583-2.153-2.583-3.229,0-.538.431-.753,1.184-.753.323,0,1.507.108,1.507.108l.323-1.937a8.175,8.175,0,0,0-2.045-.215c-1.614,0-2.153.646-2.153,2.8,0,2.475,1.614,2.26,1.614,3.229,0,.646-.753.753-1.292.753m42.62-5.489A2.984,2.984,0,0,0,61.5,29.145c-1.937,0-2.583,2.368-2.583,5.166,0,1.722-.215,3.552,1.614,3.552A2.873,2.873,0,0,0,62.571,37l-.108.753h2.153l1.614-10.332m-2.8,5.6c0,1.184-.969,2.691-2.153,2.691-.753,0-1.184-.646-1.184-1.722,0-1.722.753-2.8,1.722-2.8A1.645,1.645,0,0,1,63.432,33.02ZM4.345,37.647,5.636,29.9l.215,7.749H7.358l2.8-7.749L8.973,37.647h2.26l1.722-10.332H10.264l-3.014,6.35-.108-6.35H5.959L2.3,37.647Zm31.1,0h2.26c.646-3.552.753-6.458,2.26-5.92a8.448,8.448,0,0,1,.753-2.475h-.431c-.969,0-1.722,1.292-1.722,1.292l.215-1.184m9.364,2.045a6.362,6.362,0,0,1,2.368-.431c.753,0,1.4.108,1.4.753,0,.431-.108.538-.108.538H50.84c-1.83,0-3.875.753-3.875,3.229,0,1.937,1.292,2.368,2.045,2.368a3.234,3.234,0,0,0,2.26-.969l-.108.861H53.1l.861-5.92c0-2.475-2.153-2.583-3.014-2.583m1.614,4.628a3.524,3.524,0,0,1-2.583,2.045.84.84,0,0,1-.861-.861c0-.538.323-1.292,1.937-1.292A9.469,9.469,0,0,0,52.562,33.881Zm.969,3.767h2.26c.646-3.552.753-6.458,2.26-5.92a8.447,8.447,0,0,1,.753-2.475h-.431c-.969,0-1.722,1.292-1.722,1.292l.215-1.184" transform="translate(-2.3 -27.1)" fill="#dce5e5"/>
      </g>
    </g>
  </g>
</svg>
