<svg xmlns="http://www.w3.org/2000/svg" width="25.706" height="25.706" viewBox="0 0 25.706 25.706">
  <g id="dollar-svgrepo-com" transform="translate(0.165 0.165)">
    <path id="Path_37880" data-name="Path 37880" d="M52.957,40.818A12.139,12.139,0,1,1,40.818,52.957,12.139,12.139,0,0,1,52.957,40.818m0-.714A12.853,12.853,0,1,0,65.81,52.957h0A12.853,12.853,0,0,0,52.957,40.1Z" transform="translate(-40.269 -40.269)" fill="#fff"/>
    <path id="Path_37881" data-name="Path 37881" d="M176.407,120.688V118.95a7.47,7.47,0,0,1-3.135-.787l.554-2.142a6.554,6.554,0,0,0,3.062.8c1.051,0,1.77-.4,1.77-1.134,0-.7-.59-1.136-1.955-1.593-1.973-.659-3.319-1.574-3.319-3.349,0-1.611,1.144-2.874,3.117-3.258v-1.74h1.806v1.611a6.668,6.668,0,0,1,2.674.6l-.534,2.068a6.147,6.147,0,0,0-2.656-.623c-1.2,0-1.585.513-1.585,1.025,0,.6.645.988,2.213,1.574,2.193.769,3.079,1.775,3.079,3.424,0,1.63-1.162,3.02-3.282,3.386v1.866Z" transform="translate(-164.696 -100.532)" fill="#fff"/>
  </g>
</svg>
