<svg id="Layer_2" data-name="Layer 2" xmlns="http://www.w3.org/2000/svg" width="27.605" height="23.356" viewBox="0 0 27.605 23.356">
  <g id="Layer_1" data-name="Layer 1" transform="translate(0 0)">
    <path id="Path_34399" data-name="Path 34399" d="M23.709,3.046,20.385,4.739,4.334,12.915A9.56,9.56,0,0,1,18.476,3.331l1.9-.969.284-.145A11.679,11.679,0,0,0,2.123,11.67q0,.446.034.889A2.124,2.124,0,0,1,1,14.612l-1,.512v2.386L2.954,16h0l.957-.488.943-.48h0L21.773,6.414l1.9-.968,3.93-2V1.058Z" transform="translate(0 0.011)" fill="#fff"/>
    <path id="Path_34400" data-name="Path 34400" d="M27.6,50,5.814,61.1l-1.9.971L0,64.059v2.384l3.886-1.98L7.21,62.77l16.067-8.187a9.746,9.746,0,0,1,.082,1.257A9.562,9.562,0,0,1,9.12,64.174L9,64.236,6.941,65.287A11.679,11.679,0,0,0,25.482,55.84c0-.3-.012-.6-.034-.9A2.126,2.126,0,0,1,26.6,52.889l1-.512Z" transform="translate(0 -44.159)" fill="#fff"/>
  </g>
</svg>
