<svg xmlns="http://www.w3.org/2000/svg" width="28.044" height="28.044" viewBox="0 0 28.044 28.044">
  <g id="XMLID_86_" transform="translate(0 0)" opacity="0.54">
    <path id="XMLID_87_" d="M6.748,14.923a1.275,1.275,0,0,0,2.176-.9v-5.1H26.77a1.275,1.275,0,0,0,0-2.549H8.924v-5.1a1.275,1.275,0,0,0-2.176-.9L.375,6.747a1.275,1.275,0,0,0,0,1.8Z" transform="translate(-0.001)" fill="#adb6f5"/>
    <path id="XMLID_89_" d="M21.3,150.373a1.275,1.275,0,0,0-2.176.9v5.1H1.275a1.275,1.275,0,1,0,0,2.549H19.121v5.1a1.275,1.275,0,0,0,2.176.9l6.374-6.374a1.275,1.275,0,0,0,0-1.8Z" transform="translate(0 -137.253)" fill="#adb6f5"/>
  </g>
</svg>
