<svg xmlns="http://www.w3.org/2000/svg" width="15.73" height="15.73" viewBox="0 0 15.73 15.73">
  <path id="Path_38051" data-name="Path 38051" d="M15.75,3.516A1.753,1.753,0,0,0,14.509,3H4.748A1.747,1.747,0,0,0,3,4.748V16.982A1.753,1.753,0,0,0,4.748,18.73H16.982a1.753,1.753,0,0,0,1.748-1.748V7.221a1.718,1.718,0,0,0-.516-1.232ZM10.865,16.982a2.622,2.622,0,1,1,2.622-2.622A2.618,2.618,0,0,1,10.865,16.982Zm.874-8.739H6.5a1.748,1.748,0,0,1,0-3.5h5.243a1.748,1.748,0,0,1,0,3.5Z" transform="translate(-3 -3)" fill="#8522cc"/>
</svg>
