<svg xmlns="http://www.w3.org/2000/svg" xmlns:xlink="http://www.w3.org/1999/xlink" width="20.4" height="23.498" viewBox="0 0 20.4 23.498">
  <defs>
    <clipPath id="clip-path">
      <path id="Path_38624" data-name="Path 38624" d="M6.963,8.913h7.9V6.938a2.842,2.842,0,0,0-.889-2.074,2.863,2.863,0,0,0-4.148,0,3.875,3.875,0,0,0-.79,1.383h0a1.016,1.016,0,0,1-1.185.691A.937.937,0,0,1,7.16,5.753,4.724,4.724,0,0,1,8.444,3.481,4.632,4.632,0,0,1,11.9,2a4.89,4.89,0,0,1,4.938,4.938V8.913A2.91,2.91,0,0,1,19.8,11.876v6.913a2.91,2.91,0,0,1-2.963,2.963H6.963A2.91,2.91,0,0,1,4,18.789V11.876A2.91,2.91,0,0,1,6.963,8.913Zm3.95,7.9a.988.988,0,1,0,1.975,0V13.851a.988.988,0,1,0-1.975,0Z" transform="translate(-4 -2)" fill="#8522cc"/>
    </clipPath>
  </defs>
  <g id="Group_49544" data-name="Group 49544" transform="translate(5.5 -1.201)">
    <g id="Group_49392" data-name="Group 49392">
      <path id="Path_38054" data-name="Path 38054" d="M15.7,8.3H8.5V6.5a2.59,2.59,0,0,1,.81-1.89,2.61,2.61,0,0,1,3.78,0,3.531,3.531,0,0,1,.72,1.26h0a.926.926,0,0,0,1.08.63.854.854,0,0,0,.63-1.08,4.305,4.305,0,0,0-1.17-2.07A4.222,4.222,0,0,0,11.2,2,4.456,4.456,0,0,0,6.7,6.5V8.3A2.652,2.652,0,0,0,4,11v6.3A2.652,2.652,0,0,0,6.7,20h9a2.652,2.652,0,0,0,2.7-2.7V11A2.652,2.652,0,0,0,15.7,8.3Zm-3.6,7.2a.9.9,0,0,1-1.8,0V12.8a.9.9,0,1,1,1.8,0Z" transform="translate(-3.5 2.699)" fill="#8522cc"/>
      <rect id="Rectangle_19475" data-name="Rectangle 19475" width="13" height="10" transform="translate(1.899 1.201)" fill="#fff"/>
    </g>
    <g id="Mask_Group_169" data-name="Mask Group 169" transform="translate(-5.5 4.947)" clip-path="url(#clip-path)">
      <path id="Path_38625" data-name="Path 38625" d="M0,0H13.168l.417,10.105H0Z" transform="translate(1.536 -3.838)" fill="#8522cc"/>
    </g>
  </g>
</svg>
