<svg xmlns="http://www.w3.org/2000/svg" width="27.222" height="34.887" viewBox="0 0 27.222 34.887">
  <path id="Path_34321" data-name="Path 34321" d="M50.738,5.3A6.776,6.776,0,0,0,52.7,0a8.848,8.848,0,0,0-5.541,2.515,6.489,6.489,0,0,0-2,5.14A7.378,7.378,0,0,0,50.738,5.3Zm4.028,13.437a7.816,7.816,0,0,1,3.608-6.558,7.726,7.726,0,0,0-6.113-3.413c-2.6-.273-5.079,1.577-6.4,1.577s-3.354-1.542-5.515-1.5a8.149,8.149,0,0,0-6.916,4.322c-2.95,5.273-.756,13.084,2.119,17.361,1.405,2.094,3.079,4.443,5.276,4.358,2.121-.085,2.921-1.411,5.48-1.411s3.277,1.411,5.517,1.368c2.279-.042,3.721-2.134,5.115-4.235a19.255,19.255,0,0,0,2.315-4.9A7.59,7.59,0,0,1,54.765,18.739Z" transform="translate(-32.029)" fill="#fff"/>
</svg>
