<svg id="auction" xmlns="http://www.w3.org/2000/svg" width="20.342" height="20.337" viewBox="0 0 20.342 20.337">
  <g id="Group_917" data-name="Group 917" transform="translate(0 8.443)">
    <g id="Group_916" data-name="Group 916">
      <path id="Path_3412" data-name="Path 3412" d="M11.72,213.849l-1.7-1.7a.426.426,0,0,0-.573-.026L.825,219.31a2.294,2.294,0,0,0-.153,3.384l.5.5a2.295,2.295,0,0,0,3.385-.153l7.186-8.623A.426.426,0,0,0,11.72,213.849ZM3.908,222.5a1.485,1.485,0,0,1-2.132.1l-.5-.5a1.445,1.445,0,0,1,.1-2.131L9.7,213.024l1.15,1.151Z" transform="translate(0 -212.025)" fill="#adadad"/>
    </g>
  </g>
  <g id="Group_919" data-name="Group 919" transform="translate(7.596 2.495)">
    <g id="Group_918" data-name="Group 918">
      <path id="Path_3413" data-name="Path 3413" d="M200.8,67.92l-5.1-5.1a.425.425,0,0,0-.6,0l-4.248,4.248a.425.425,0,0,0,0,.6l5.1,5.1a.426.426,0,0,0,.6,0l4.248-4.248A.425.425,0,0,0,200.8,67.92Zm-4.548,3.948-4.5-4.5,3.648-3.648,4.5,4.5Z" transform="translate(-190.73 -62.698)" fill="#adadad"/>
    </g>
  </g>
  <g id="Group_921" data-name="Group 921" transform="translate(12.459 7.373)">
    <g id="Group_920" data-name="Group 920">
      <path id="Path_3414" data-name="Path 3414" d="M319.92,185.713a1.948,1.948,0,0,0-2.692,0l-3.857,3.857a1.907,1.907,0,0,0,0,2.693,2.55,2.55,0,0,0,3.6,0l2.944-2.944A2.553,2.553,0,0,0,319.92,185.713Zm-.6,3-2.944,2.944a1.739,1.739,0,0,1-2.4,0,1.054,1.054,0,0,1,0-1.49l3.857-3.857a1.054,1.054,0,0,1,1.492,0A1.7,1.7,0,0,1,319.321,188.717Z" transform="translate(-312.815 -185.173)" fill="#adadad"/>
    </g>
  </g>
  <g id="Group_923" data-name="Group 923" transform="translate(5.079 0)">
    <g id="Group_922" data-name="Group 922">
      <path id="Path_3415" data-name="Path 3415" d="M134.828.775a2.61,2.61,0,0,0-3.6,0L128.28,3.719a2.553,2.553,0,0,0,0,3.606,1.9,1.9,0,0,0,2.692,0l3.857-3.857A1.907,1.907,0,0,0,134.828.775Zm-.6,2.093-3.857,3.857a1.077,1.077,0,0,1-1.492,0,1.7,1.7,0,0,1,0-2.4l2.944-2.945a1.7,1.7,0,0,1,2.4,0,1.054,1.054,0,0,1,0,1.49Z" transform="translate(-127.535 -0.053)" fill="#adadad"/>
    </g>
  </g>
  <g id="Group_925" data-name="Group 925" transform="translate(11.102 17.788)">
    <g id="Group_924" data-name="Group 924">
      <path id="Path_3416" data-name="Path 3416" d="M285.851,446.682h-4.992a2.127,2.127,0,0,0-2.124,2.124.425.425,0,0,0,.425.425h8.39a.424.424,0,0,0,.425-.425A2.127,2.127,0,0,0,285.851,446.682Zm-6.193,1.7a1.277,1.277,0,0,1,1.2-.85h4.992a1.278,1.278,0,0,1,1.2.85Z" transform="translate(-278.735 -446.682)" fill="#adadad"/>
    </g>
  </g>
</svg>
