<svg xmlns="http://www.w3.org/2000/svg" width="18.369" height="18.37" viewBox="0 0 18.369 18.37">
  <path id="paintbrush" d="M16.209.013a6.88,6.88,0,0,0-3.4,1.882,52.5,52.5,0,0,0-7.254,8.4,4,4,0,0,0-3.666,1.44C.319,13.691,1.631,15.44.152,17a.539.539,0,0,0,.179.865A6.66,6.66,0,0,0,7.3,16.725,4.251,4.251,0,0,0,8.422,13.11a52.9,52.9,0,0,0,8.205-7.6,6.7,6.7,0,0,0,1.743-3.465A1.89,1.89,0,0,0,16.209.013ZM6.514,15.984a5.549,5.549,0,0,1-5.086,1.123c1.081-1.724.152-3.269,1.3-4.7A2.715,2.715,0,0,1,6.663,12,2.879,2.879,0,0,1,6.514,15.984Zm.11-5.34c.264-.365.678-.928,1.194-1.6l1.766,1.766c-.65.535-1.193.964-1.546,1.238a3.547,3.547,0,0,0-1.415-1.4ZM17.3,1.985c-.121,2.26-5.161,6.674-6.881,8.131l-1.93-1.93c1.416-1.792,5.57-6.864,7.837-7.1A.818.818,0,0,1,17.3,1.985Z" transform="translate(-0.005 0)" fill="#adadad"/>
</svg>
