<svg xmlns="http://www.w3.org/2000/svg" width="24.79" height="22.155" viewBox="0 0 24.79 22.155">
  <g id="cart-svgrepo-com" transform="translate(-2 -3)">
    <path id="Path_37864" data-name="Path 37864" d="M26.569,8.492a1.239,1.239,0,0,0-1.019-.534H8.61L7.18,4.525A2.472,2.472,0,0,0,4.892,3H2V5.479H4.892l5.88,14.112a1.239,1.239,0,0,0,1.144.762h9.916a1.242,1.242,0,0,0,1.161-.8l3.718-9.916a1.239,1.239,0,0,0-.143-1.142Z" transform="translate(0 0)" fill="#fff"/>
    <circle id="Ellipse_1591" data-name="Ellipse 1591" cx="2" cy="2" r="2" transform="translate(10.395 21.155)" fill="#fff"/>
    <circle id="Ellipse_1592" data-name="Ellipse 1592" cx="2" cy="2" r="2" transform="translate(19.395 21.155)" fill="#fff"/>
  </g>
</svg>
