<svg xmlns="http://www.w3.org/2000/svg" width="42" height="42" viewBox="0 0 42 42">
  <g id="Group_46225" data-name="Group 46225" transform="translate(-962.242 -7.514)">
    <circle id="Ellipse_1593" data-name="Ellipse 1593" cx="21" cy="21" r="21" transform="translate(962.242 7.514)" fill="#6b5377"/>
    <g id="copy-svgrepo-com" transform="translate(973.77 20.201)">
      <g id="Group_46224" data-name="Group 46224" transform="translate(1.203)">
        <g id="Group_46223" data-name="Group 46223" transform="translate(0)">
          <path id="Path_37872" data-name="Path 37872" d="M149.176,0h-9.191A1.189,1.189,0,0,0,138.8,1.188V3.976h1.084V1.188a.1.1,0,0,1,.1-.1h9.191a.1.1,0,0,1,.1.1v9.191a.1.1,0,0,1-.1.1h-2.7v1.084h2.7a1.189,1.189,0,0,0,1.188-1.188V1.188A1.189,1.189,0,0,0,149.176,0Z" transform="translate(-133.825)" fill="#fff"/>
          <path id="Path_37873" data-name="Path 37873" d="M11.581,140H2.391A1.189,1.189,0,0,0,1.2,141.186v9.191a1.189,1.189,0,0,0,1.188,1.188h9.191a1.189,1.189,0,0,0,1.188-1.188v-9.191A1.189,1.189,0,0,0,11.581,140Zm0,10.482H2.391a.1.1,0,0,1-.1-.1v-9.191a.1.1,0,0,1,.1-.1h9.191a.1.1,0,0,1,.1.1v9.191h0A.1.1,0,0,1,11.582,150.48Z" transform="translate(-1.203 -134.938)" fill="#fff"/>
        </g>
      </g>
    </g>
  </g>
</svg>
