<svg xmlns="http://www.w3.org/2000/svg" width="20.102" height="20.102" viewBox="0 0 20.102 20.102">
  <path id="Path_38057" data-name="Path 38057" d="M11.951,2A9.951,9.951,0,1,1,2,11.951,9.951,9.951,0,0,1,11.951,2Zm0,1.659a8.293,8.293,0,1,0,8.293,8.293A8.293,8.293,0,0,0,11.951,3.659Zm0,12.439a1.244,1.244,0,1,1-1.244,1.244A1.244,1.244,0,0,1,11.951,16.1Zm0-9.951a3.317,3.317,0,0,1,3.317,3.317,3.6,3.6,0,0,1-1.25,2.833l-.438.447a2.1,2.1,0,0,0-.8,1.7.829.829,0,0,1-1.659,0,3.6,3.6,0,0,1,1.25-2.833l.438-.447a2.1,2.1,0,0,0,.8-1.7,1.659,1.659,0,1,0-3.317,0,.829.829,0,0,1-1.659,0A3.317,3.317,0,0,1,11.951,6.146Z" transform="translate(-1.9 -1.9)" fill="#cdcdcd" stroke="#fff" stroke-width="0.2"/>
</svg>
