<svg id="photo_1_" data-name="photo (1)" xmlns="http://www.w3.org/2000/svg" width="19.867" height="17.592" viewBox="0 0 19.867 17.592">
  <g id="Group_36349" data-name="Group 36349" transform="translate(0 0)">
    <g id="Group_36348" data-name="Group 36348">
      <ellipse id="Ellipse_1237" data-name="Ellipse 1237" cx="1.365" cy="1.365" rx="1.365" ry="1.365" transform="translate(6.123 4.341)" fill="#fff"/>
      <path id="Path_24836" data-name="Path 24836" d="M18.691,34.73a4.2,4.2,0,0,0-2.351-1.118V26.673a2.729,2.729,0,0,0-.777-1.9,2.649,2.649,0,0,0-1.9-.777H2.673a2.729,2.729,0,0,0-1.9.777A2.649,2.649,0,0,0,0,26.673V37.99a2.729,2.729,0,0,0,.777,1.9,2.649,2.649,0,0,0,1.9.777H13.308a4.011,4.011,0,0,0,5.384-5.933ZM1,26.673A1.587,1.587,0,0,1,1.5,25.517a1.663,1.663,0,0,1,1.175-.493H13.668a1.683,1.683,0,0,1,1.668,1.668v5.915L12.53,29.8a.509.509,0,0,0-.72,0L7.583,34.047,4.72,31.166a.509.509,0,0,0-.72,0L1,34.2ZM2.654,39.7v-.038a1.663,1.663,0,0,1-1.175-.493A1.73,1.73,0,0,1,1,37.99V35.639L4.36,32.265l2.862,2.862a.527.527,0,0,0,.72,0l4.227-4.246,2.768,2.787-.171.057a1.76,1.76,0,0,0-.246.076c-.076.019-.152.057-.227.076a.568.568,0,0,0-.152.076,1.762,1.762,0,0,0-.19.095l-.284.171c-.057.038-.095.057-.152.095-.038.019-.057.038-.095.057a2.287,2.287,0,0,0-.455.4,4.01,4.01,0,0,0-1.175,2.844,4.168,4.168,0,0,0,.095.834c.019.076.038.133.057.209.057.19.114.379.19.569v.019a3.477,3.477,0,0,0,.246.455Zm15.3,0a3,3,0,0,1-4.189.038c-.076-.076-.152-.171-.227-.246-.057-.057-.114-.133-.171-.19a1.8,1.8,0,0,1-.19-.322c-.038-.076-.076-.133-.114-.209a1.6,1.6,0,0,1-.095-.322c-.019-.076-.057-.171-.076-.246a3.138,3.138,0,0,1-.057-.607,3.043,3.043,0,0,1,.872-2.123,2.931,2.931,0,0,1,2.123-.872,3.043,3.043,0,0,1,2.123.872,2.963,2.963,0,0,1,.872,2.123A3.032,3.032,0,0,1,17.952,39.7Z" transform="translate(0 -24)" fill="#fff"/>
      <path id="Path_24837" data-name="Path 24837" d="M300.176,264.517a.511.511,0,0,0-.132-.088.428.428,0,0,0-.132-.029h-.029a.427.427,0,0,0-.132.029.346.346,0,0,0-.132.088l-.909.909a.394.394,0,0,0,.557.557l.235-.235v1.613a.4.4,0,1,0,.792,0v-1.613l.235.235a.394.394,0,0,0,.557-.557Z" transform="translate(-284.069 -252.515)" fill="#fff"/>
    </g>
  </g>
</svg>
