<svg xmlns="http://www.w3.org/2000/svg" width="17.678" height="17.678" viewBox="0 0 17.678 17.678">
  <g id="Instagram" transform="translate(0 0)">
    <path id="Path_28705" data-name="Path 28705" d="M12.892,0H4.784A4.791,4.791,0,0,0,0,4.785v8.107a4.791,4.791,0,0,0,4.785,4.785h8.108a4.791,4.791,0,0,0,4.785-4.785V4.785A4.791,4.791,0,0,0,12.892,0ZM8.838,13.673a4.834,4.834,0,1,1,4.834-4.834A4.839,4.839,0,0,1,8.838,13.673Zm4.949-8.527a1.428,1.428,0,1,1,1.428-1.428A1.43,1.43,0,0,1,13.787,5.145Zm0,0" transform="translate(0.001 0)"/>
    <path id="Path_28706" data-name="Path 28706" d="M149.817,146.02a3.8,3.8,0,1,0,3.8,3.8A3.8,3.8,0,0,0,149.817,146.02Zm0,0" transform="translate(-140.978 -140.978)"/>
    <path id="Path_28707" data-name="Path 28707" d="M388.384,96.3a.392.392,0,1,0,.392.392A.392.392,0,0,0,388.384,96.3Zm0,0" transform="translate(-374.596 -92.976)"/>
  </g>
</svg>
