<svg xmlns="http://www.w3.org/2000/svg" width="23.147" height="23.144" viewBox="0 0 23.147 23.144">
  <g id="link-svgrepo-com" transform="translate(0.5 0.49)">
    <path id="Path_37858" data-name="Path 37858" d="M140.929,1.787l-.771-.682a4.346,4.346,0,0,0-6.134.369l-2.205,2.488a1.364,1.364,0,0,0,.115,1.922l.207.184a1.361,1.361,0,0,0,1.923-.116l2.205-2.488a1.348,1.348,0,0,1,1.9-.114l.77.683a1.346,1.346,0,0,1,.115,1.9l-4.822,5.44a1.343,1.343,0,0,1-1.624.3,1.471,1.471,0,0,0-1.778.331l-.038.042a1.473,1.473,0,0,0,.42,2.282,4.339,4.339,0,0,0,5.265-.969L141.3,7.921A4.351,4.351,0,0,0,140.929,1.787Z" transform="translate(-120.244 0)" fill="#fff" stroke="#8522cc" stroke-width="1"/>
    <path id="Path_37859" data-name="Path 37859" d="M10.455,102.9l-.207-.184a1.364,1.364,0,0,0-1.922.116l-2.2,2.488a1.347,1.347,0,0,1-1.9.115l-.771-.684a1.345,1.345,0,0,1-.114-1.9L8.16,97.416a1.348,1.348,0,0,1,1.6-.314,1.551,1.551,0,0,0,1.841-.363l.017-.02a1.451,1.451,0,0,0-.4-2.242,4.329,4.329,0,0,0-5.3.949l-4.822,5.438h0A4.35,4.35,0,0,0,1.461,107l.771.683a4.351,4.351,0,0,0,6.135-.369l2.2-2.488A1.361,1.361,0,0,0,10.455,102.9Z" transform="translate(0 -86.619)" fill="#fff" stroke="#8522cc" stroke-width="1"/>
  </g>
</svg>
