<svg xmlns="http://www.w3.org/2000/svg" width="16.044" height="16.078" viewBox="0 0 16.044 16.078">
  <path id="Path_29424" data-name="Path 29424" d="M16.163,11.8,13.919,9.556a1.492,1.492,0,0,0-2.484.561,1.527,1.527,0,0,1-1.763.962A6.919,6.919,0,0,1,5.5,6.912a1.452,1.452,0,0,1,.962-1.763,1.492,1.492,0,0,0,.561-2.484L4.784.421a1.6,1.6,0,0,0-2.164,0L1.1,1.943c-1.523,1.6.16,5.85,3.927,9.616s8.013,5.529,9.616,3.927l1.523-1.523A1.6,1.6,0,0,0,16.163,11.8Z" transform="translate(-0.539 0)" fill="#b868f1"/>
</svg>
