<svg id="Group_38567" data-name="Group 38567" xmlns="http://www.w3.org/2000/svg" width="20.33" height="22.122" viewBox="0 0 20.33 22.122">
  <path id="Path_29597" data-name="Path 29597" d="M57.191,4.91l-.029-.693-.69-.071A17.444,17.444,0,0,1,50.1,2.1,16.654,16.654,0,0,1,47.55.438L47.032,0l-.518.437A16.65,16.65,0,0,1,43.963,2.1a17.444,17.444,0,0,1-6.372,2.043l-.69.071-.029.693a21.125,21.125,0,0,0,1.022,6.657,18.334,18.334,0,0,0,2.883,5.623,16.106,16.106,0,0,0,5.909,4.766l.346.165.346-.165a16.105,16.105,0,0,0,5.909-4.766,18.333,18.333,0,0,0,2.883-5.623A21.125,21.125,0,0,0,57.191,4.91ZM47.032,20.339a14.476,14.476,0,0,1-4.962-4.1,16.7,16.7,0,0,1-2.631-5.108,20.7,20.7,0,0,1-.959-5.481,17.837,17.837,0,0,0,3.2-.792,20.506,20.506,0,0,0,3.084-1.366,19.977,19.977,0,0,0,2.264-1.429A19.983,19.983,0,0,0,49.3,3.493,20.5,20.5,0,0,0,52.38,4.859a17.836,17.836,0,0,0,3.2.792,20.613,20.613,0,0,1-.944,5.43,16.736,16.736,0,0,1-2.628,5.134A14.476,14.476,0,0,1,47.032,20.339Z" transform="translate(-36.867)" fill="#fff"/>
  <path id="Path_29598" data-name="Path 29598" d="M279.714,305.016l-.99.99-3.691,3.691-1.871-1.871-.254-.254-.5.5h0l-.5.5,3.129,3.129,5.685-5.685Z" transform="translate(-265.681 -297.184)" fill="#fff"/>
</svg>
