<svg xmlns="http://www.w3.org/2000/svg" width="22.05" height="22.05" viewBox="0 0 22.05 22.05">
  <g id="delete-bin-svgrepo-com" transform="translate(-3 -3)">
    <path id="Path_37874" data-name="Path 37874" d="M9.759,7H21.038V20.784a2.506,2.506,0,0,1-2.506,2.506H8.506A2.506,2.506,0,0,1,6,20.784V7Z" transform="translate(0.506 0.759)" fill="#fff"/>
    <path id="Path_37875" data-name="Path 37875" d="M24.05,7.759H21.544M4,7.759H6.506m0,0H21.544m-15.038,0V21.544A2.506,2.506,0,0,0,9.013,24.05H19.038a2.506,2.506,0,0,0,2.506-2.506V7.759M10.266,7.133h0A3.133,3.133,0,0,1,13.4,4h1.253a3.133,3.133,0,0,1,3.133,3.133h0" fill="none" stroke="#fff" stroke-linecap="round" stroke-linejoin="round" stroke-width="2"/>
  </g>
</svg>
