<svg xmlns="http://www.w3.org/2000/svg" width="18.386" height="23.525" viewBox="0 0 18.386 23.525">
  <path id="user-svgrepo-com" d="M22.056,15.744l-3.507-1.753a.966.966,0,0,1-.536-.868V11.881c.084-.1.173-.22.264-.349A8.4,8.4,0,0,0,19.361,9.4a1.457,1.457,0,0,0,.854-1.328V6.607a1.464,1.464,0,0,0-.367-.964V3.691a3.291,3.291,0,0,0-.768-2.4A4.62,4.62,0,0,0,15.443,0a4.622,4.622,0,0,0-3.637,1.3,3.291,3.291,0,0,0-.768,2.4V5.644a1.464,1.464,0,0,0-.367.964V8.076a1.46,1.46,0,0,0,.55,1.141,7.7,7.7,0,0,0,1.286,2.657v1.215A.97.97,0,0,1,12,13.94L8.726,15.726A3.31,3.31,0,0,0,7,18.634v1.189c0,1.742,5.523,2.2,8.443,2.2s8.443-.46,8.443-2.2V18.705A3.294,3.294,0,0,0,22.056,15.744Z" transform="translate(-6.25 0.75)" fill="none" stroke="#fff" stroke-width="1.5"/>
</svg>
