<svg id="Group_46225" data-name="Group 46225" xmlns="http://www.w3.org/2000/svg" width="46.451" height="46.451" viewBox="0 0 46.451 46.451">
  <circle id="Ellipse_1593" data-name="Ellipse 1593" cx="23.225" cy="23.225" r="23.225" transform="translate(0 0)" fill="#59dbb5"/>
  <g id="eye-svgrepo-com" transform="translate(10.297 15.276)">
    <path id="Path_37884" data-name="Path 37884" d="M13.281,98.725c-5.075,0-9.677,2.776-13.073,7.286a1.051,1.051,0,0,0,0,1.255c3.4,4.515,8,7.292,13.073,7.292s9.677-2.776,13.073-7.286a1.051,1.051,0,0,0,0-1.255C22.958,101.5,18.355,98.725,13.281,98.725Zm.364,13.491a5.587,5.587,0,1,1,5.211-5.211A5.59,5.59,0,0,1,13.645,112.216Zm-.168-2.575a3.008,3.008,0,1,1,2.809-2.809A3,3,0,0,1,13.476,109.641Z" transform="translate(0 -98.725)" fill="#fff"/>
  </g>
</svg>
