<svg xmlns="http://www.w3.org/2000/svg" width="18.568" height="24.219" viewBox="0 0 18.568 24.219">
  <path id="user-svgrepo-com" d="M23.555,17.312,19.7,15.384a1.062,1.062,0,0,1-.59-.955V13.065c.092-.113.19-.242.29-.384a9.238,9.238,0,0,0,1.192-2.341,1.6,1.6,0,0,0,.939-1.46V7.266a1.61,1.61,0,0,0-.4-1.06V4.059a3.619,3.619,0,0,0-.844-2.634,5.081,5.081,0,0,0-4-1.425,5.082,5.082,0,0,0-4,1.425,3.619,3.619,0,0,0-.844,2.634V6.206a1.61,1.61,0,0,0-.4,1.06V8.88a1.605,1.605,0,0,0,.6,1.255,8.472,8.472,0,0,0,1.414,2.921v1.336a1.067,1.067,0,0,1-.556.936L8.9,17.293A3.64,3.64,0,0,0,7,20.49V21.8c0,1.916,6.073,2.422,9.284,2.422s9.284-.506,9.284-2.422V20.569A3.622,3.622,0,0,0,23.555,17.312Z" transform="translate(-7)" fill="#fff"/>
</svg>
