<svg xmlns="http://www.w3.org/2000/svg" width="20.637" height="20.637" viewBox="0 0 20.637 20.637">
  <path id="history-svgrepo-com" d="M28.637,18.3a10.319,10.319,0,0,1-16.794,8.053,1,1,0,0,1-.077-1.481l.469-.469a1,1,0,0,1,1.327-.083,7.656,7.656,0,1,0-.489-11.579l2.112,2.112a.666.666,0,0,1-.471,1.136H8.666A.666.666,0,0,1,8,15.323V9.274A.666.666,0,0,1,9.136,8.8l2.054,2.054A10.318,10.318,0,0,1,28.637,18.3ZM21.11,21.577l.409-.525a1,1,0,0,0-.175-1.4L19.65,18.333V13.991a1,1,0,0,0-1-1h-.666a1,1,0,0,0-1,1v5.644l2.721,2.117A1,1,0,0,0,21.11,21.577Z" transform="translate(-8 -8)" fill="#fff"/>
</svg>
