<svg xmlns="http://www.w3.org/2000/svg" width="21.164" height="21.164" viewBox="0 0 21.164 21.164">
  <path id="Path_37869" data-name="Path 37869" d="M20.005,8.491H18.883a8.339,8.339,0,0,0-.958-2.271l.807-.808a1.156,1.156,0,0,0,0-1.633L17.387,2.435a1.182,1.182,0,0,0-1.632,0l-.841.836a8.351,8.351,0,0,0-2.241-.91V1.16A1.153,1.153,0,0,0,11.528,0h-1.9A1.146,1.146,0,0,0,8.49,1.16v1.2a8.374,8.374,0,0,0-2.246.91L5.4,2.435a1.185,1.185,0,0,0-1.635,0L2.426,3.777a1.16,1.16,0,0,0-.338.816,1.144,1.144,0,0,0,.337.816l.807.81a8.338,8.338,0,0,0-.958,2.271H1.151A1.147,1.147,0,0,0,0,9.638v1.9a1.138,1.138,0,0,0,1.151,1.138H2.274a8.379,8.379,0,0,0,.957,2.276l-.807.812a1.158,1.158,0,0,0,0,1.635l1.344,1.344a1.155,1.155,0,0,0,1.632,0l.844-.836a8.4,8.4,0,0,0,2.246.911v1.2a1.138,1.138,0,0,0,1.138,1.15h1.9a1.144,1.144,0,0,0,1.145-1.15v-1.2a8.356,8.356,0,0,0,2.242-.91l.836.834a1.156,1.156,0,0,0,1.634,0L18.73,17.4a1.154,1.154,0,0,0,0-1.632l-.806-.815a8.413,8.413,0,0,0,.958-2.276H20a1.146,1.146,0,0,0,1.16-1.138v-1.9A1.154,1.154,0,0,0,20.005,8.491ZM10.578,14.2a3.615,3.615,0,1,1,3.651-3.615A3.633,3.633,0,0,1,10.578,14.2Z" fill="#fff"/>
</svg>
