<svg xmlns="http://www.w3.org/2000/svg" width="17.996" height="17.996" viewBox="0 0 17.996 17.996">
  <g id="XMLID_86_" transform="translate(0 0)">
    <path id="XMLID_87_" d="M4.331,9.576A.818.818,0,0,0,5.727,9V5.726H17.179a.818.818,0,1,0,0-1.636H5.727V.818A.818.818,0,0,0,4.331.24L.241,4.33a.818.818,0,0,0,0,1.157Z" transform="translate(-0.001)" fill="#fff"/>
    <path id="XMLID_89_" d="M13.666,150.239a.818.818,0,0,0-1.4.578v3.272H.818a.818.818,0,1,0,0,1.636H12.27V159a.818.818,0,0,0,1.4.578l4.09-4.09a.818.818,0,0,0,0-1.157Z" transform="translate(0 -141.82)" fill="#fff"/>
  </g>
</svg>
