<svg xmlns="http://www.w3.org/2000/svg" width="18.475" height="20.637" viewBox="0 0 18.475 20.637">
  <g id="Group_46818" data-name="Group 46818" transform="translate(-1.082 -3.984)">
    <g id="money-svgrepo-com_1_" data-name="money-svgrepo-com (1)" transform="translate(-25.739 3.984)">
      <g id="Group_46186" data-name="Group 46186" transform="translate(26.821)">
        <path id="Path_37867" data-name="Path 37867" d="M39.771,5.826,41.092,0H31.025l1.321,5.826a9.238,9.238,0,0,0-2.994,14.811H42.765A9.238,9.238,0,0,0,39.771,5.826ZM39.2,1.51l-.845,3.725h-4.6L32.916,1.51H39.2Zm2.88,17.617H30.036A7.729,7.729,0,0,1,32.953,7.208l1.055-.464h4.1l1.055.464a7.728,7.728,0,0,1,2.918,11.919Z" transform="translate(-26.821)" fill="#fff"/>
      </g>
    </g>
    <path id="Path_37868" data-name="Path 37868" d="M4.08,23.977,2.423,21.291l-.628-2.861.3-2.355,1.361-2.25,2.111-2.7,2.861-.8,3.07-.767,2.39.767,1.988,1.954,1.43,1.552.977,1.954.558,2.3v1.954l-.854,2.111-1.2,1.622-1.761.558-3.3-.349s-4.867-.07-5.006,0S4.08,23.977,4.08,23.977Z" fill="#fff"/>
  </g>
</svg>
